<?xml version="1.0" encoding="UTF-8" standalone="no"?>
<svg
   width="574.71844"
   height="116.25647"
   style="overflow:visible"
   viewBox="0 0 574.71844 116.25647"
   data-svgdocument=""
   id="_EhxCjg0eFd-gWAOw8alkU"
   class="fl-svgdocument"
   x="0"
   y="0"
   overflow="hidden"
   data-bbox="48 197.8717673304115 574.7184122916683 116.25646533917694"
   version="1.1"
   sodipodi:docname="navbar-logo.svg"
   inkscape:version="1.1.2 (0a00cf5339, 2022-02-04)"
   xmlns:inkscape="http://www.inkscape.org/namespaces/inkscape"
   xmlns:sodipodi="http://sodipodi.sourceforge.net/DTD/sodipodi-0.dtd"
   xmlns="http://www.w3.org/2000/svg"
   xmlns:svg="http://www.w3.org/2000/svg">
  <sodipodi:namedview
     id="namedview872"
     pagecolor="#ffffff"
     bordercolor="#666666"
     borderopacity="1.0"
     inkscape:pageshadow="2"
     inkscape:pageopacity="0.0"
     inkscape:pagecheckerboard="0"
     showgrid="false"
     fit-margin-top="0"
     fit-margin-left="0"
     fit-margin-right="0"
     fit-margin-bottom="0"
     inkscape:zoom="2.5664062"
     inkscape:cx="208.07306"
     inkscape:cy="26.885845"
     inkscape:window-width="1920"
     inkscape:window-height="1020"
     inkscape:window-x="0"
     inkscape:window-y="29"
     inkscape:window-maximized="1"
     inkscape:current-layer="_EhxCjg0eFd-gWAOw8alkU" />
  <defs
     id="_NVSUhYTtPwk97Q54rUMxx"
     transform="matrix(1.3043043613433838, 0, 0, 1.3043043613433838, -31.625648498535156, 131.65293884277344)"
     data-uid="o_f37dakjbb_5">
    <linearGradient
       id="o_f37dakjbb_3"
       x1="11.781935"
       y1="46.681636"
       x2="95.808879"
       y2="46.681636"
       data-uid="o_f37dakjbb_6"
       gradientTransform="matrix(1.2060093,0,0,1.3835617,-14.209124,-6.4586932)"
       gradientUnits="userSpaceOnUse">
      <stop
         id="_3m4cezOni4tb2P8V2Ksai"
         offset="0%"
         stop-color="rgb(67, 207, 217)"
         data-uid="o_f37dakjbb_7" />
      <stop
         id="_j0VHyOT3q9pLPviRbj7a9"
         offset="100%"
         stop-color="rgb(116, 209, 76)"
         data-uid="o_f37dakjbb_8" />
    </linearGradient>
  </defs>
  <path
     id="_pWCOG6xWHbr3Mm2K8-BV5"
     d="m 95.561921,96.688115 c 0,7.606145 -6.186848,13.792995 -13.792992,13.792995 H 26.423695 l -5.202151,-5.08087 h 0.599193 53.133271 c 8.560522,0 15.5256,-6.966523 15.5256,-15.527044 V 25.775411 h 1.739826 c 1.842338,0 3.342487,1.500149 3.342487,3.343932 z M 9.4773584,94.811125 H 70.774095 c 5.027447,0 9.117843,-4.090396 9.117843,-9.117843 V 16.363026 h 1.471271 c 1.84234,0 3.341044,1.500149 3.341044,3.342487 v 70.167683 c 0,5.376855 -4.374833,9.751688 -9.750245,9.751688 H 15.568914 Z M 5.7753547,5.7753549 H 70.774095 c 1.842338,0 3.342487,1.4987055 3.342487,3.3424865 V 85.693282 c 0,1.843783 -1.500149,3.342488 -3.342487,3.342488 H 5.7753547 Z M 92.219434,20.000056 h -1.739826 v -0.294543 c 0,-5.027448 -4.090395,-9.117844 -9.116399,-9.117844 H 79.891938 V 9.1178414 C 79.891938,4.0903949 75.801542,-7.2937011e-7 70.774095,-7.2937011e-7 H -4.0734863e-7 V 94.811125 L 24.419647,116.25646 h 57.349282 c 10.789807,0 19.568351,-8.77854 19.568351,-19.568345 V 29.119343 c 0,-5.028892 -4.090398,-9.119287 -9.117846,-9.119287 z"
     fill="url(#o_f37dakjbb_3)"
     fill-rule="evenodd"
     data-uid="o_f37dakjbb_9"
     style="fill:url(#o_f37dakjbb_3);stroke-width:1.29174"
     inkscape:export-filename="/home/barais/git/gradeScope/gradeScopeFront/src/main/webapp/content/logo.png"
     inkscape:export-xdpi="600"
     inkscape:export-ydpi="600" />
  <path
     text="correctexam"
     text-anchor="start"
     font-size="100px"
     letter-spacing="0"
     side="left"
     offset="0"
     dx="0"
     dy="0"
     space="preserve"
     href=""
     font-family="Bungee"
     font-scale="contain"
     x="0"
     y="0"
     fill="#3a3a3a"
     data-fl-textpath=""
     id="_z5CNUfQuDwRMN9gngi9lT"
     data-uid="o_f37dakjbb_10"
     d="m 148.52123,57.827057 v 0 h -14.58106 q -7.4698,0 -11.08519,-2.987922 -3.61538,-2.987923 -3.61538,-9.202801 v 0 -18.584875 q 0,-6.214878 3.61538,-9.23268 3.61539,-3.017801 11.08519,-3.017801 v 0 h 14.58106 q 1.13542,0 1.64336,0.507947 0.50795,0.507946 0.50795,1.643357 v 0 7.230771 q 0,1.135411 -0.50795,1.643358 -0.50794,0.507946 -1.64336,0.507946 v 0 h -12.01144 q -1.85251,0 -2.74889,0.746981 -0.89638,0.74698 -0.89638,2.240941 v 0 14.22251 q 0,1.493961 0.89638,2.181183 0.89638,0.687222 2.74889,0.687222 v 0 h 12.01144 q 1.13542,0 1.64336,0.507947 0.50795,0.507947 0.50795,1.643357 v 0 7.111255 q 0,1.13541 -0.50795,1.643357 -0.50794,0.507947 -1.64336,0.507947 z M 193.5791,26.155082 v 20.377629 q 0,2.748888 -0.80674,4.98983 -0.80674,2.240942 -2.8684,3.82454 -2.06167,1.583599 -5.67706,2.479976 -3.61538,0.896376 -9.17292,0.896376 v 0 q -5.55753,0 -9.2028,-0.896376 -3.64526,-0.896377 -5.70693,-2.479976 -2.06166,-1.583598 -2.8684,-3.82454 -0.80674,-2.240942 -0.80674,-4.98983 v 0 -20.377629 q 0,-2.748888 0.80674,-4.98983 0.80674,-2.240942 2.8684,-3.85442 2.06167,-1.613478 5.70693,-2.509854 3.64527,-0.896377 9.2028,-0.896377 v 0 q 5.55754,0 9.17292,0.896377 3.61539,0.896376 5.67706,2.509854 2.06166,1.613478 2.8684,3.85442 0.80674,2.240942 0.80674,4.98983 z m -23.54483,2.151304 v 16.075021 q 0,1.195169 0.89638,2.001908 0.89638,0.806739 4.12333,0.806739 v 0 q 3.22696,0 4.12334,-0.806739 0.89637,-0.806739 0.89637,-2.001908 v 0 -16.075021 q 0,-1.13541 -0.89637,-1.942149 -0.89638,-0.806739 -4.12334,-0.806739 v 0 q -3.22695,0 -4.12333,0.806739 -0.89638,0.806739 -0.89638,1.942149 z m 49.12144,-2.748888 h -4.48188 v 7.64908 h 4.48188 q 1.55372,0 2.09155,-0.806739 0.53783,-0.806739 0.53783,-2.001908 v 0 -2.031787 q 0,-1.195168 -0.53783,-2.001907 -0.53783,-0.806739 -2.09155,-0.806739 z m -6.63318,32.269559 v 0 h -9.2028 q -1.13541,0 -1.64336,-0.507947 -0.50795,-0.507947 -0.50795,-1.643357 v 0 -38.723471 q 0,-1.135411 0.50795,-1.643357 0.50795,-0.507947 1.64336,-0.507947 v 0 h 19.89956 q 6.69294,0 9.23268,2.778767 2.53973,2.778768 2.53973,7.200893 v 0 2.748888 q 0,2.509855 -0.74698,4.272729 -0.74698,1.762874 -2.59949,2.539734 v 0 q 3.22695,0.35855 5.22886,2.629371 2.00191,2.270821 2.00191,6.035603 v 0 12.66879 q 0,1.13541 -0.50795,1.643357 -0.50794,0.507947 -1.64335,0.507947 v 0 h -9.26256 q -1.13541,0 -1.64336,-0.507947 -0.50795,-0.507947 -0.50795,-1.643357 v 0 -9.143042 q 0,-1.314686 -0.50794,-1.942149 -0.50795,-0.627464 -1.76288,-0.627464 v 0 h -8.36618 v 11.712655 q 0,1.13541 -0.50795,1.643357 -0.50794,0.507947 -1.64335,0.507947 z m 51.03371,-32.269559 h -4.48189 v 7.64908 h 4.48189 q 1.55372,0 2.09154,-0.806739 0.53783,-0.806739 0.53783,-2.001908 v 0 -2.031787 q 0,-1.195168 -0.53783,-2.001907 -0.53782,-0.806739 -2.09154,-0.806739 z m -6.63319,32.269559 v 0 h -9.2028 q -1.13541,0 -1.64336,-0.507947 -0.50794,-0.507947 -0.50794,-1.643357 v 0 -38.723471 q 0,-1.135411 0.50794,-1.643357 0.50795,-0.507947 1.64336,-0.507947 v 0 h 19.89956 q 6.69295,0 9.23268,2.778767 2.53974,2.778768 2.53974,7.200893 v 0 2.748888 q 0,2.509855 -0.74699,4.272729 -0.74698,1.762874 -2.59949,2.539734 v 0 q 3.22696,0.35855 5.22887,2.629371 2.0019,2.270821 2.0019,6.035603 v 0 12.66879 q 0,1.13541 -0.50794,1.643357 -0.50795,0.507947 -1.64336,0.507947 v 0 h -9.26256 q -1.13541,0 -1.64336,-0.507947 -0.50794,-0.507947 -0.50794,-1.643357 v 0 -9.143042 q 0,-1.314686 -0.50795,-1.942149 -0.50795,-0.627464 -1.76287,-0.627464 v 0 h -8.36619 v 11.712655 q 0,1.13541 -0.50794,1.643357 -0.50795,0.507947 -1.64336,0.507947 z m 62.92564,0 v 0 h -27.72792 q -1.13541,0 -1.64335,-0.507947 -0.50795,-0.507947 -0.50795,-1.643357 v 0 -38.723471 q 0,-1.135411 0.50795,-1.643357 0.50794,-0.507947 1.64335,-0.507947 v 0 h 27.72792 q 1.13541,0 1.64336,0.507947 0.50794,0.507946 0.50794,1.643357 v 0 6.991738 q 0,1.13541 -0.50794,1.643357 -0.50795,0.507947 -1.64336,0.507947 v 0 h -16.49333 v 4.6014 h 11.6529 q 1.13541,0 1.64335,0.507946 0.50795,0.507947 0.50795,1.643358 v 0 6.394153 q 0,1.13541 -0.50795,1.643357 -0.50794,0.507947 -1.64335,0.507947 v 0 h -11.6529 v 5.139226 h 16.49333 q 1.13541,0 1.64336,0.507947 0.50794,0.507947 0.50794,1.643357 v 0 6.991738 q 0,1.13541 -0.50794,1.643357 -0.50795,0.507947 -1.64336,0.507947 z m 37.5283,0 v 0 h -14.58106 q -7.4698,0 -11.08519,-2.987922 -3.61538,-2.987923 -3.61538,-9.202801 v 0 -18.584875 q 0,-6.214878 3.61538,-9.23268 3.61539,-3.017801 11.08519,-3.017801 v 0 h 14.58106 q 1.13541,0 1.64336,0.507947 0.50795,0.507946 0.50795,1.643357 v 0 7.230771 q 0,1.135411 -0.50795,1.643358 -0.50795,0.507946 -1.64336,0.507946 v 0 h -12.01144 q -1.85252,0 -2.74889,0.746981 -0.89638,0.74698 -0.89638,2.240941 v 0 14.22251 q 0,1.493961 0.89638,2.181183 0.89637,0.687222 2.74889,0.687222 v 0 h 12.01144 q 1.13541,0 1.64336,0.507947 0.50795,0.507947 0.50795,1.643357 v 0 7.111255 q 0,1.13541 -0.50795,1.643357 -0.50795,0.507947 -1.64336,0.507947 z m 29.22188,0 v 0 H 376.918 q -1.13541,0 -1.64335,-0.507947 -0.50795,-0.507947 -0.50795,-1.643357 v 0 -29.341396 h -8.78449 q -1.13541,0 -1.64336,-0.507946 -0.50795,-0.507947 -0.50795,-1.643358 v 0 -7.230771 q 0,-1.135411 0.50795,-1.643357 0.50795,-0.507947 1.64336,-0.507947 v 0 h 31.55246 q 1.13541,0 1.64335,0.507947 0.50795,0.507946 0.50795,1.643357 v 0 7.230771 q 0,1.135411 -0.50795,1.643358 -0.50794,0.507946 -1.64335,0.507946 v 0 h -8.78449 v 29.341396 q 0,1.13541 -0.50795,1.643357 -0.50795,0.507947 -1.64336,0.507947 z m 48.76289,0 v 0 h -27.72792 q -1.13541,0 -1.64335,-0.507947 -0.50795,-0.507947 -0.50795,-1.643357 v 0 -38.723471 q 0,-1.135411 0.50795,-1.643357 0.50794,-0.507947 1.64335,-0.507947 v 0 h 27.72792 q 1.13541,0 1.64336,0.507947 0.50795,0.507946 0.50795,1.643357 v 0 6.991738 q 0,1.13541 -0.50795,1.643357 -0.50795,0.507947 -1.64336,0.507947 v 0 h -16.49333 v 4.6014 h 11.6529 q 1.13541,0 1.64335,0.507946 0.50795,0.507947 0.50795,1.643358 v 0 6.394153 q 0,1.13541 -0.50795,1.643357 -0.50794,0.507947 -1.64335,0.507947 v 0 h -11.6529 v 5.139226 h 16.49333 q 1.13541,0 1.64336,0.507947 0.50795,0.507947 0.50795,1.643357 v 0 6.991738 q 0,1.13541 -0.50795,1.643357 -0.50795,0.507947 -1.64336,0.507947 z m 22.05087,-8.06739 v 5.916086 q 0,1.13541 -0.50795,1.643357 -0.50795,0.507947 -1.64336,0.507947 v 0 h -9.08328 q -1.13541,0 -1.64336,-0.507947 -0.50794,-0.507947 -0.50794,-1.643357 v 0 -6.394154 q 0,-2.748888 0.47806,-4.123332 0.47807,-1.374444 1.79276,-3.226956 v 0 l 4.84043,-6.51367 -4.84043,-6.513671 q -1.37445,-1.852511 -1.82264,-3.226956 -0.44818,-1.374444 -0.44818,-4.123332 v 0 -4.6014 q 0,-1.135411 0.50794,-1.643357 0.50795,-0.507947 1.64336,-0.507947 v 0 h 9.2028 q 1.13541,0 1.64336,0.507947 0.50794,0.507946 0.50794,1.643357 v 0 4.123332 q 0,0.597585 0.0598,1.254928 0.0598,0.657343 0.47807,1.254927 v 0 l 2.62937,3.764782 q 0.29879,0.478067 0.62746,0.74698 0.32868,0.268913 0.80674,0.268913 v 0 h 0.71711 q 0.47806,0 0.77685,-0.268913 0.2988,-0.268913 0.65735,-0.74698 v 0 l 2.68913,-3.764782 q 0.41831,-0.597584 0.47807,-1.254927 0.0598,-0.657343 0.0598,-1.254928 v 0 -4.123332 q 0,-1.135411 0.50795,-1.643357 0.50795,-0.507947 1.64336,-0.507947 v 0 h 9.08328 q 1.13541,0 1.64336,0.507947 0.50794,0.507946 0.50794,1.643357 v 0 4.6014 q 0,2.748888 -0.47806,4.123332 -0.47807,1.374445 -1.79276,3.226956 v 0 l -4.84043,6.573429 4.84043,6.453912 q 1.37445,1.852512 1.82264,3.226956 0.44818,1.374444 0.44818,4.123332 v 0 6.394154 q 0,1.13541 -0.50794,1.643357 -0.50795,0.507947 -1.64336,0.507947 v 0 h -9.08328 q -1.13541,0 -1.64336,-0.507947 -0.50795,-0.507947 -0.50795,-1.643357 v 0 -5.916086 q 0,-0.597584 -0.0598,-1.254927 -0.0598,-0.657343 -0.47807,-1.254928 v 0 l -2.62937,-3.764782 q -0.35855,-0.537826 -0.65735,-0.776859 -0.29879,-0.239034 -0.77686,-0.239034 v 0 h -0.83661 q -0.47807,0 -0.77686,0.239034 -0.2988,0.239033 -0.65735,0.776859 v 0 l -2.68913,3.764782 q -0.41831,0.597585 -0.47806,1.254928 -0.0598,0.657343 -0.0598,1.254927 z m 46.79086,-22.409416 v 0 l -2.80865,9.083283 h 9.38208 l -2.80865,-9.083283 q -0.23903,-0.537826 -0.50795,-0.77686 -0.26891,-0.239034 -0.62746,-0.239034 v 0 h -1.49396 q -0.35855,0 -0.62747,0.239034 -0.26891,0.239034 -0.50794,0.77686 z m -3.40623,19.95932 v 8.366182 q 0,1.13541 -0.50795,1.643357 -0.50795,0.507947 -1.64336,0.507947 v 0 h -8.78449 q -1.13541,0 -1.64336,-0.507947 -0.50794,-0.507947 -0.50794,-1.643357 v 0 -15.776229 q 0,-1.792753 0.5677,-4.123333 0.56771,-2.330579 1.76288,-5.438018 v 0 l 5.19898,-13.565167 q 0.35855,-1.015893 1.10553,-1.493961 0.74698,-0.478067 1.94215,-0.478067 v 0 h 16.07502 q 1.13541,0 1.88239,0.478067 0.74698,0.478068 1.10554,1.493961 v 0 l 5.19898,13.565167 q 1.19517,3.107439 1.76287,5.438018 0.56771,2.33058 0.56771,4.123333 v 0 15.776229 q 0,1.13541 -0.50795,1.643357 -0.50794,0.507947 -1.64336,0.507947 v 0 h -9.02352 q -1.19517,0 -1.76287,-0.507947 -0.56771,-0.507947 -0.56771,-1.643357 v 0 -8.366182 z m 42.48825,10.517486 v 0 h -8.90401 q -1.13541,0 -1.64336,-0.507947 -0.50794,-0.507947 -0.50794,-1.643357 v 0 -38.723471 q 0,-1.135411 0.50794,-1.643357 0.50795,-0.507947 1.64336,-0.507947 v 0 h 9.62111 q 0.95614,0 1.5836,0.418309 0.62746,0.418309 1.16529,1.374444 v 0 l 5.37826,9.740626 q 0.29879,0.537826 0.50795,0.77686 0.20915,0.239034 0.5677,0.239034 v 0 h 0.53783 q 0.35855,0 0.5677,-0.239034 0.20916,-0.239034 0.50795,-0.77686 v 0 l 5.3185,-9.740626 q 0.53783,-0.956135 1.16529,-1.374444 0.62746,-0.418309 1.5836,-0.418309 v 0 h 9.68087 q 1.13541,0 1.64335,0.507947 0.50795,0.507946 0.50795,1.643357 v 0 38.723471 q 0,1.13541 -0.50795,1.643357 -0.50794,0.507947 -1.64335,0.507947 v 0 h -9.2028 q -1.13541,0 -1.64336,-0.507947 -0.50795,-0.507947 -0.50795,-1.643357 v 0 -21.034972 l -3.52575,6.51367 q -0.53782,1.015894 -1.2848,1.464082 -0.74698,0.448188 -1.88239,0.448188 v 0 h -2.39034 q -1.13541,0 -1.88239,-0.448188 -0.74698,-0.448188 -1.28481,-1.464082 v 0 l -3.52575,-6.51367 v 21.034972 q 0,1.13541 -0.50794,1.643357 -0.50795,0.507947 -1.64336,0.507947 z"
     style="stroke-width:0.597584;fill:#ffffff;fill-opacity:1"
     inkscape:export-filename="/home/barais/git/gradeScope/gradeScopeFront/src/main/webapp/content/logo.png"
     inkscape:export-xdpi="600"
     inkscape:export-ydpi="600" />
</svg>
